<svg aria-hidden="true" style="position: absolute; width: 0; height: 0; overflow: hidden;" version="1.1" xmlns="http://www.w3.org/2000/svg" xmlns:xlink="http://www.w3.org/1999/xlink">
<defs>
<symbol id="icon-bed" viewBox="0 0 32 32">
<path stroke-linejoin="round" stroke-linecap="round" stroke-miterlimit="4" stroke-width="2.24" d="M3 26v-7c0.006-2.207 1.793-3.994 3.999-4h18.001c2.207 0.006 3.994 1.793 4 3.999v7.001M24 15h-18v-6.501c0.005-1.379 1.122-2.496 2.5-2.499h15c1.379 0.005 2.496 1.122 2.499 2.5v6.5h-2z"></path>
<path stroke-linejoin="round" stroke-linecap="round" stroke-miterlimit="4" stroke-width="2.24" d="M3 26v-0.501c0.003-0.827 0.673-1.497 1.501-1.499h22.999c0.828 0.002 1.499 0.673 1.501 1.501v0.499M7 15v-1c0.004-1.103 0.897-1.996 2-2h5c1.103 0.004 1.996 0.897 2 2v0M16 14v1M16 14c0.003-1.103 0.897-1.997 2-2h5c1.103 0.004 1.996 0.897 2 2v1"></path>
</symbol>
<symbol id="icon-water" viewBox="0 0 32 32">
<path stroke-linejoin="miter" stroke-linecap="butt" stroke-miterlimit="10" stroke-width="2.4" d="M25 20c0 5.523-3.477 9-9 9s-9-3.477-9-9c0-5.926 6.451-13.928 8.432-16.243 0.138-0.16 0.342-0.261 0.569-0.261s0.43 0.101 0.568 0.26l0.001 0.001c1.979 2.315 8.43 10.317 8.43 16.243z"></path>
<path stroke-linejoin="round" stroke-linecap="round" stroke-miterlimit="4" stroke-width="2.4" d="M21.501 20.501c0 2.485-2.014 4.499-4.499 4.499-0.001 0-0.001 0-0.002 0h0"></path>
</symbol>
<symbol id="icon-toilet" viewBox="0 0 32 32">
<path d="M24 4c1.939 0 3.269 1.648 4.040 3.312 0.762 1.654 1.224 3.811 1.286 6.147l0.006 0.541v12.667c0 0.001 0 0.002 0 0.003 0 0.735-0.596 1.331-1.331 1.331-0.019 0-0.038-0-0.057-0.001l0.003 0-0.166-0.019-3.781-0.629-3.781 0.629c-0.066 0.012-0.142 0.018-0.22 0.018-0.093 0-0.184-0.010-0.272-0.028l0.009 0.002-0.157-0.042-3.579-1.192-3.579 1.192c-0.126 0.043-0.27 0.068-0.421 0.068-0.68 0-1.241-0.509-1.323-1.167l-0.001-0.006-0.010-0.16v-3.902c-0.709 0.734-1.595 1.237-2.667 1.237-1.939 0-3.269-1.648-4.040-3.312-0.819-1.781-1.293-4.147-1.293-6.688s0.472-4.907 1.293-6.688c0.736-1.59 1.981-3.163 3.779-3.301l0.261-0.011h16zM24 6.667h-12.291c0.12 0.213 0.23 0.429 0.33 0.646 0.821 1.779 1.296 4.144 1.296 6.686v10.816l2.245-0.747c0.126-0.043 0.27-0.068 0.421-0.068s0.295 0.025 0.43 0.071l-0.009-0.003 3.688 1.229 3.672-0.613c0.066-0.012 0.142-0.018 0.219-0.018s0.153 0.007 0.227 0.019l-0.008-0.001 2.448 0.408v-11.093c0-2.245-0.424-4.213-1.050-5.568-0.677-1.472-1.347-1.765-1.618-1.765zM8 6.667c-0.272 0-0.941 0.293-1.616 1.763-0.629 1.357-1.051 3.325-1.051 5.57s0.422 4.213 1.050 5.568c0.677 1.472 1.347 1.765 1.618 1.765 0.272 0 0.939-0.293 1.616-1.763 0.627-1.357 1.051-3.325 1.051-5.57s-0.424-4.213-1.050-5.568c-0.678-1.472-1.347-1.766-1.618-1.766zM8 11.333c0.736 0 1.333 1.194 1.333 2.667 0 1.472-0.597 2.667-1.333 2.667s-1.333-1.194-1.333-2.667c0-1.472 0.597-2.667 1.333-2.667z"></path>
</symbol>
<symbol id="icon-shower" viewBox="0 0 32 32">
<path stroke-linejoin="round" stroke-linecap="round" stroke-miterlimit="4" stroke-width="2.56" d="M5.333 5.333l3.334 3.334M18 8.667c-1.187-1.154-2.809-1.865-4.598-1.865-3.645 0-6.6 2.955-6.6 6.6 0 1.788 0.711 3.411 1.866 4.599l-0.002-0.002M20 6.667l-13.333 13.333M18.667 22.667v0.013M13.333 21.333v0.014M17.333 17.333v0.014M21.333 13.333v0.014M14.667 26.667v0.013M22.667 18.667v0.013M26.667 14.667v0.013"></path>
</symbol>
<symbol id="icon-schedule" viewBox="0 0 32 32">
<path stroke-linejoin="round" stroke-linecap="round" stroke-miterlimit="4" stroke-width="2.4" d="M25.333 5.333h-18.666c-1.472 0-2.667 1.195-2.667 2.667v18.667c0 1.472 1.194 2.666 2.667 2.666h18.666c1.472 0 2.667-1.194 2.667-2.666v-18.667c0-1.472-1.194-2.667-2.667-2.667zM21.333 2.667v5.333M10.667 2.667v5.333M4 13.333h24"></path>
</symbol>
<symbol id="icon-route" viewBox="0 0 32 32">
<path d="M6.667 4c-0.019-0.001-0.042-0.001-0.065-0.001-1.473 0-2.667 1.194-2.667 2.667s1.194 2.667 2.667 2.667c0.023 0 0.046-0 0.069-0.001l-0.003 0c1.445-0.037 2.602-1.216 2.602-2.666s-1.157-2.63-2.598-2.666l-0.003-0zM1.333 6.667c0-2.946 2.388-5.334 5.334-5.334s5.334 2.388 5.334 5.334v0c0 2.946-2.388 5.334-5.334 5.334s-5.334-2.388-5.334-5.334v0zM25.333 22.667c-0.019-0-0.042-0.001-0.065-0.001-1.473 0-2.667 1.194-2.667 2.667s1.194 2.667 2.667 2.667c0.023 0 0.046-0 0.069-0.001l-0.003 0c1.445-0.037 2.602-1.216 2.602-2.666s-1.157-2.63-2.599-2.666l-0.003-0zM20 25.333c0-2.946 2.388-5.334 5.334-5.334s5.334 2.388 5.334 5.334v0c0 2.946-2.388 5.334-5.334 5.334s-5.334-2.388-5.334-5.334v0z"></path>
<path d="M13.333 6.667c0-0.736 0.597-1.334 1.334-1.334h8.4c4.13 0 5.619 5.405 1.987 7.429l-15.472 8.805c-0.407 0.224-0.678 0.65-0.678 1.139 0 0.716 0.58 1.296 1.296 1.296 0.023 0 0.046-0.001 0.069-0.002l-0.003 0h7.066c0.737 0 1.334 0.597 1.334 1.334s-0.597 1.334-1.334 1.334v0h-7.064c-4.131 0-5.619-5.405-1.987-7.429l15.472-8.805c0.407-0.224 0.678-0.65 0.678-1.139 0-0.716-0.58-1.296-1.296-1.296-0.024 0-0.047 0.001-0.070 0.002l0.003-0h-8.4c-0 0-0.001 0-0.002 0-0.736 0-1.333-0.597-1.333-1.333v0z"></path>
</symbol>
<symbol id="icon-radio" viewBox="0 0 32 32">
<path stroke-linejoin="miter" stroke-linecap="butt" stroke-miterlimit="4" stroke-width="2.0800" d="M2.667 18.667c0-5.029 0-7.544 1.562-9.104 1.563-1.563 4.077-1.563 9.104-1.563h5.334c5.027 0 7.542 0 9.104 1.563 1.562 1.56 1.562 4.075 1.562 9.104 0 5.027 0 7.542-1.562 9.104s-4.077 1.562-9.104 1.562h-5.334c-5.027 0-7.542 0-9.104-1.562s-1.562-4.077-1.562-9.104z"></path>
<path stroke-linejoin="miter" stroke-linecap="butt" stroke-miterlimit="4" stroke-width="2.0800" d="M6.667 14.667c0-1.473 1.193-2.666 2.666-2.667h13.335c1.473 0 2.666 1.194 2.666 2.666s-1.194 2.666-2.666 2.666v0h-13.334c-1.472-0.001-2.665-1.194-2.666-2.665v-0zM12 22.667c0 1.105-0.895 2-2 2s-2-0.895-2-2v0c0-1.105 0.895-2 2-2s2 0.895 2 2v0z"></path>
<path stroke-linejoin="miter" stroke-linecap="round" stroke-miterlimit="4" stroke-width="2.0800" d="M20 15.333v2M17.333 22.667h6.667M8.667 8l11.333-5.333"></path>
</symbol>
<symbol id="icon-plate" viewBox="0 0 32 32">
<path stroke-linejoin="miter" stroke-linecap="butt" stroke-miterlimit="4" stroke-width="2.4" d="M12 6.667h16c0.736 0 1.333 0.597 1.333 1.333v0 17.333c0 0 0 0.001 0 0.002 0 0.736-0.597 1.333-1.333 1.333h-16M12 6.667h-8c-0.736 0-1.333 0.597-1.333 1.333v0 17.333c0 0 0 0.001 0 0.002 0 0.736 0.597 1.333 1.333 1.333h8M12 6.667v20"></path>
<path stroke-linejoin="round" stroke-linecap="round" stroke-miterlimit="4" stroke-width="2.4" d="M7.333 11.333v2.667M24.667 10.667l-8 11.333"></path>
<path d="M8.667 18c0-0.737-0.597-1.334-1.334-1.334s-1.334 0.597-1.334 1.334v0c0 0.737 0.597 1.334 1.334 1.334s1.334-0.597 1.334-1.334v0zM8.667 22c0-0.737-0.597-1.334-1.334-1.334s-1.334 0.597-1.334 1.334v0c0 0.737 0.597 1.334 1.334 1.334s1.334-0.597 1.334-1.334v0z"></path>
</symbol>
<symbol id="icon-people" viewBox="0 0 32 32">
<path d="M9.067 24.133h-4.4c-0.267 0-0.4-0.133-0.534-0.266-0.133-0.134-0.266-0.4-0.133-0.667 0.8-2.267 2.8-3.6 5.067-3.6 2.8 0 5.066-2.4 5.066-5.2s-2.266-5.467-5.066-5.467-5.067 2.4-5.067 5.334c0 1.333 0.533 2.666 1.333 3.6-1.733 0.933-3.066 2.4-3.866 4.4-0.081 0.288-0.128 0.62-0.128 0.962 0 0.787 0.247 1.517 0.668 2.116l-0.008-0.012c0.667 0.934 1.6 1.467 2.667 1.467h4.4c0.8 0 1.333-0.533 1.333-1.333s-0.533-1.334-1.333-1.334zM6.667 14.267c0-1.467 1.066-2.534 2.4-2.534 1.333 0 2.4 1.2 2.4 2.534 0 1.466-1.067 2.533-2.4 2.533-1.334 0-2.4-1.2-2.4-2.533z"></path>
<path d="M30.533 21.467c-0.914-2.407-2.658-4.325-4.875-5.441l-0.057-0.026c1.2-1.067 1.867-2.667 1.867-4.533 0-3.467-2.667-6.267-5.867-6.267s-5.867 2.8-5.867 6.267c0 1.733 0.667 3.333 1.867 4.533-2.274 1.142-4.019 3.060-4.91 5.399l-0.023 0.069c-0.667 1.2-0.4 2.533 0.266 3.6 0.667 1.066 1.867 1.6 3.067 1.6h11.067c1.2 0 2.4-0.667 3.066-1.6 0.8-1.067 0.934-2.4 0.4-3.6zM18.267 11.6c0-2 1.466-3.6 3.2-3.6 1.733 0 3.2 1.6 3.2 3.6s-1.467 3.6-3.2 3.6c-1.734 0-3.2-1.733-3.2-3.6zM27.867 23.6c-0.134 0.133-0.4 0.533-0.8 0.533h-11.067c-0.533 0-0.8-0.4-0.8-0.533-0.153-0.192-0.246-0.438-0.246-0.706 0-0.18 0.042-0.35 0.116-0.501l-0.003 0.007c1.066-2.8 3.733-4.667 6.533-4.667s5.467 1.867 6.533 4.667c0.134 0.533-0.133 1.067-0.266 1.2z"></path>
</symbol>
<symbol id="icon-microwave" viewBox="0 0 32 32">
<path stroke-linejoin="round" stroke-linecap="round" stroke-miterlimit="4" stroke-width="2.24" d="M29.714 5.714h-27.426c-0 0-0.001 0-0.002 0-0.631 0-1.142 0.511-1.142 1.142 0 0.001 0 0.001 0 0.002v-0 18.285c0 0 0 0.001 0 0.002 0 0.631 0.511 1.142 1.142 1.142 0.001 0 0.001 0 0.002 0h27.424c0 0 0.001 0 0.002 0 0.631 0 1.142-0.511 1.142-1.142 0-0.001 0-0.001 0-0.002v0-18.285c0-0.632-0.512-1.144-1.144-1.144v0z"></path>
<path stroke-linejoin="round" stroke-linecap="round" stroke-miterlimit="4" stroke-width="2.24" d="M25.142 11.429h1.144M25.142 16h1.144M19.429 10.286h-12.571c-0 0-0.001 0-0.002 0-0.631 0-1.142 0.511-1.142 1.142 0 0 0 0 0 0v0 9.142c0.001 0.631 0.513 1.142 1.144 1.142h12.571c0.631 0 1.142-0.511 1.142-1.142v-9.142c0-0.631-0.511-1.142-1.142-1.142v0z"></path>
</symbol>
<symbol id="icon-map-pin" viewBox="0 0 32 32">
<path stroke-linejoin="round" stroke-linecap="round" stroke-miterlimit="4" stroke-width="2.4" d="M28 13.333c0 9.334-12 17.334-12 17.334s-12-8-12-17.334c0-6.627 5.373-12 12-12s12 5.373 12 12v0z"></path>
<path stroke-linejoin="round" stroke-linecap="round" stroke-miterlimit="4" stroke-width="2.4" d="M16 17.333c2.209 0 4-1.791 4-4s-1.791-4-4-4v0c-2.209 0-4 1.791-4 4s1.791 4 4 4v0z"></path>
</symbol>
<symbol id="icon-heart" viewBox="0 0 32 32">
<path stroke-linejoin="round" stroke-linecap="round" stroke-miterlimit="4" stroke-width="3.0667" d="M27.787 6.147c-1.327-1.328-3.161-2.149-5.187-2.149s-3.859 0.821-5.187 2.149l-1.413 1.413-1.413-1.413c-1.327-1.327-3.161-2.148-5.187-2.148-4.051 0-7.335 3.284-7.335 7.335 0 2.026 0.821 3.859 2.148 5.187l11.787 11.787 11.787-11.787c1.328-1.327 2.149-3.161 2.149-5.187s-0.821-3.859-2.149-5.187l-0-0z"></path>
</symbol>
<symbol id="icon-gearbox" viewBox="0 0 32 32">
<path stroke-linejoin="round" stroke-linecap="round" stroke-miterlimit="4" stroke-width="2.4" d="M22.667 14.667h2c1.105 0 2-0.895 2-2s-0.895-2-2-2v0h-2v6.666M22.667 22.667v5.333h1.333c1.473 0 2.666-1.194 2.666-2.666s-1.194-2.666-2.666-2.666v0h-1.333zM4 6.667c-0.001 0.019-0.001 0.042-0.001 0.065 0 1.473 1.194 2.667 2.667 2.667s2.667-1.194 2.667-2.667c0-0.023-0-0.046-0.001-0.069l0 0.003c-0.037-1.445-1.216-2.602-2.666-2.602s-2.63 1.157-2.666 2.598l-0 0.003z"></path>
<path stroke-linejoin="round" stroke-linecap="round" stroke-miterlimit="4" stroke-width="2.4" d="M6.667 9.333v4c0 0 0 0.001 0 0.002 0 0.736 0.597 1.333 1.333 1.333h4M12 14.667v9.333c0 0.736 0.597 1.333 1.333 1.333v0h4M12 14.667h5.333"></path>
</symbol>
<symbol id="icon-gas" viewBox="0 0 32 32">
<path d="M25.072 13.992c-0.368-0.454-0.816-0.848-1.232-1.24-1.072-0.906-2.288-1.557-3.312-2.509-2.384-2.206-2.912-5.848-1.392-8.643-1.52 0.347-2.848 1.133-3.982 1.995-4.144 3.142-5.776 8.688-3.824 13.448 0.064 0.152 0.128 0.304 0.128 0.499 0 0.333-0.24 0.635-0.56 0.755-0.368 0.152-0.752 0.061-1.056-0.181-0.090-0.070-0.165-0.155-0.222-0.252l-0.002-0.004c-1.808-2.162-2.096-5.259-0.88-7.738-2.67 2.054-4.126 5.531-3.918 8.81 0.096 0.755 0.192 1.512 0.464 2.267 0.224 0.906 0.656 1.813 1.136 2.614 1.728 2.614 4.72 4.488 7.936 4.864 3.422 0.41 7.085-0.179 9.709-2.416 2.928-2.509 3.952-6.528 2.448-9.974l-0.208-0.392c-0.336-0.696-1.232-1.904-1.232-1.904zM20.016 23.512c-0.448 0.362-1.184 0.755-1.76 0.906-1.792 0.605-3.582-0.24-4.638-1.238 1.904-0.422 3.040-1.752 3.376-3.098 0.272-1.21-0.24-2.206-0.448-3.37-0.192-1.12-0.16-2.070 0.272-3.114 0.304 0.574 0.624 1.149 1.008 1.602 1.232 1.512 3.168 2.176 3.584 4.232 0.064 0.211 0.096 0.422 0.096 0.65 0.048 1.238-0.528 2.598-1.488 3.43z"></path>
</symbol>
<symbol id="icon-fuel" viewBox="0 0 32 32">
<path d="M26.36 9.64l0.013-0.013-4.96-4.96-1.413 1.413 2.813 2.813c-1.266 0.488-2.148 1.695-2.148 3.109 0 0.92 0.374 1.753 0.979 2.355l0 0c0.603 0.602 1.436 0.975 2.355 0.975 0.483 0 0.941-0.103 1.356-0.287l-0.021 0.008v9.614c0 0.736-0.597 1.333-1.333 1.333s-1.333-0.597-1.333-1.333v0-6c0-1.473-1.194-2.667-2.667-2.667v0h-1.333v-9.333c0-1.473-1.194-2.667-2.667-2.667v0h-8c-1.473 0-2.667 1.194-2.667 2.667v0 21.333h13.334v-10h2v6.667c0 1.841 1.492 3.333 3.333 3.333s3.333-1.492 3.333-3.333v0-12.667c0-0.92-0.373-1.76-0.973-2.36zM16 18v7.333h-8v-9.333h8v2zM16 13.333h-8v-6.666h8v6.666zM24 13.333c-0.736 0-1.333-0.597-1.333-1.333s0.597-1.333 1.333-1.333v0c0.736 0 1.333 0.597 1.333 1.333s-0.597 1.333-1.333 1.333v0z"></path>
</symbol>
<symbol id="icon-freezer" viewBox="0 0 32 32">
<path stroke-linejoin="round" stroke-linecap="round" stroke-miterlimit="4" stroke-width="2.0800" d="M23.4 3h-14.794c-1.104 0-2 0.896-2 2v20.387c0 1.104 0.896 2 2 2h14.794c1.104 0 2-0.896 2-2v-20.387c0-1.104-0.896-2-2-2z"></path>
<path stroke-linejoin="round" stroke-linecap="round" stroke-miterlimit="4" stroke-width="2.0800" d="M6.608 13.126h18.784M10.314 10.566v-4.038M10.314 19.442v-4.042M8.426 27.387v0.699c0 0 0 0.001 0 0.002 0 0.502 0.406 0.909 0.907 0.912h1.648c0.504 0 0.912-0.408 0.912-0.912v0-0.701M20.101 27.387v0.699c0 0 0 0.001 0 0.002 0 0.504 0.408 0.912 0.912 0.912 0 0 0 0 0 0h1.654c0.504 0 0.912-0.408 0.912-0.912v0-0.701"></path>
</symbol>
<symbol id="icon-food" viewBox="0 0 32 32">
<path stroke-linejoin="round" stroke-linecap="round" stroke-miterlimit="4" stroke-width="2.4" d="M25.333 20v-16c-6.421 6.125-6.696 11.091-6.666 16h6.666zM25.333 20v8h-1.333v-4M10.667 5.333v22.667M6.667 5.333v4c0 2.209 1.791 4 4 4s4-1.791 4-4v0-4"></path>
</symbol>

<!-- <symbol id="icon-food-2" viewBox="0 0 32 32">
<path stroke-linejoin="round" stroke-linecap="round" stroke-miterlimit="4" stroke-width="1.7455" d="M25.051 19.879v-15.515c-6.227 5.94-6.494 10.756-6.465 15.515h6.465zM25.051 19.879v7.758h-1.293v-3.879M10.828 5.657v21.98M6.95 5.657v3.879c0 1.029 0.409 2.015 1.136 2.743s1.714 1.136 2.743 1.136c1.029 0 2.015-0.409 2.743-1.136s1.136-1.714 1.136-2.743v-3.879"></path>
</symbol> -->


<symbol id="icon-conditioner" viewBox="0 0 32 32">
<path stroke-linejoin="round" stroke-linecap="round" stroke-miterlimit="4" stroke-width="2.4" d="M28.571 1.142h-25.142c-1.263 0-2.286 1.024-2.286 2.286v0 11.429c0.001 1.262 1.024 2.285 2.286 2.285h25.142c0 0 0.001 0 0.002 0 1.262 0 2.285-1.023 2.285-2.285v0-11.429c0-0 0-0.001 0-0.002 0-1.262-1.023-2.285-2.285-2.285-0.001 0-0.001 0-0.002 0h0z"></path>
<path stroke-linejoin="round" stroke-linecap="round" stroke-miterlimit="4" stroke-width="2.4" d="M25.142 17.142v-4.571c0-1.262-1.023-2.285-2.285-2.285h-13.715c-1.261 0.001-2.284 1.023-2.285 2.285v4.571M5.714 28.571h0.229c1.767 0 3.2-1.433 3.2-3.2v0-2.514M26.286 28.571h-0.229c-1.767 0-3.2-1.433-3.2-3.2v0-2.514M16 30.858v-8"></path>
</symbol>
<symbol id="icon-cd" viewBox="0 0 32 32">
<path stroke-linejoin="miter" stroke-linecap="butt" stroke-miterlimit="4" stroke-width="2.4" d="M16 28c6.627 0 12-5.373 12-12s-5.373-12-12-12v0c-6.627 0-12 5.373-12 12s5.373 12 12 12v0z"></path>
<path stroke-linejoin="miter" stroke-linecap="round" stroke-miterlimit="4" stroke-width="2.4" d="M8.667 16c0-4.050 3.283-7.333 7.333-7.333v0"></path>
<path stroke-linejoin="miter" stroke-linecap="butt" stroke-miterlimit="4" stroke-width="2.4" d="M16 19.333c1.841 0 3.333-1.492 3.333-3.333s-1.492-3.333-3.333-3.333v0c-1.841 0-3.333 1.492-3.333 3.333s1.492 3.333 3.333 3.333v0z"></path>
</symbol>
<symbol id="icon-ac" viewBox="0 0 40 32">
<path d="M19.38 0c-1.876 0-3.695 0.641-5.146 1.812s-2.446 2.801-2.814 4.613l-0.145 0.719c-0.039 0.161-0.044 0.328-0.016 0.49s0.090 0.318 0.18 0.457c0.091 0.139 0.209 0.259 0.347 0.352s0.295 0.158 0.459 0.19c0.165 0.032 0.334 0.032 0.498-0.002s0.32-0.099 0.458-0.193c0.138-0.094 0.255-0.214 0.345-0.354s0.15-0.296 0.177-0.459l0.148-0.716c0.277-1.343 1.051-2.537 2.171-3.351s2.507-1.189 3.892-1.054c1.385 0.135 2.67 0.772 3.606 1.787s1.456 2.335 1.459 3.706c0 1.469-0.593 2.878-1.647 3.917s-2.486 1.623-3.978 1.624h-18.125c-0.332 0-0.649 0.13-0.884 0.36s-0.366 0.544-0.366 0.87c0 0.326 0.132 0.639 0.366 0.87s0.552 0.36 0.884 0.36h18.125c2.12-0.051 4.136-0.916 5.617-2.41s2.311-3.499 2.311-5.587-0.828-4.094-2.308-5.589c-1.48-1.495-3.496-2.361-5.616-2.414zM33.75 11.077c-1.658 0-3.247 0.648-4.419 1.802s-1.831 2.719-1.831 4.351c0 0.326 0.132 0.639 0.366 0.87s0.552 0.36 0.884 0.36 0.649-0.13 0.884-0.36c0.235-0.231 0.366-0.544 0.366-0.87 0-0.73 0.22-1.444 0.632-2.051s0.998-1.080 1.683-1.36c0.685-0.279 1.439-0.353 2.167-0.21s1.396 0.494 1.92 1.011c0.524 0.516 0.882 1.174 1.026 1.891s0.070 1.459-0.213 2.133-0.765 1.251-1.381 1.657c-0.617 0.406-1.342 0.622-2.083 0.622h-32.5c-0.332 0-0.649 0.13-0.884 0.361s-0.366 0.544-0.366 0.87c0 0.326 0.132 0.64 0.366 0.87s0.552 0.36 0.884 0.36h24.375c0.829 0.002 1.623 0.327 2.208 0.906s0.913 1.361 0.911 2.177c-0.002 0.816-0.333 1.598-0.92 2.174s-1.383 0.898-2.212 0.897c-0.746 0.001-1.469-0.259-2.040-0.733s-0.952-1.132-1.078-1.856l-0.012-0.074c-0.023-0.163-0.078-0.32-0.163-0.462s-0.199-0.265-0.333-0.363-0.288-0.168-0.451-0.206c-0.163-0.039-0.332-0.044-0.497-0.017s-0.323 0.086-0.464 0.175c-0.141 0.088-0.263 0.204-0.358 0.339s-0.162 0.288-0.196 0.45c-0.034 0.161-0.035 0.328-0.003 0.489l0.013 0.074c0.222 1.299 0.905 2.479 1.927 3.33s2.317 1.317 3.655 1.317c1.493 0.001 2.926-0.582 3.983-1.621s1.652-2.447 1.655-3.918c0-1.14-0.35-2.198-0.947-3.077h3.447c1.658 0 3.247-0.648 4.419-1.802s1.831-2.719 1.831-4.351-0.658-3.197-1.831-4.351c-1.172-1.154-2.762-1.802-4.419-1.802z"></path>
</symbol>

<symbol id="icon-star" viewBox="0 0 32 32">
<path stroke-linejoin="miter" stroke-linecap="butt" stroke-miterlimit="4" stroke-width="2.4" d="M12.4 9.394l3.6-6.822 3.6 6.822c0.318 0.604 0.9 1.024 1.57 1.14l7.6 1.316-5.376 5.532c-0.385 0.396-0.622 0.937-0.622 1.533 0 0.11 0.008 0.219 0.024 0.325l-0.001-0.012 1.1 7.636-6.924-3.404c-0.283-0.142-0.617-0.225-0.97-0.225s-0.687 0.083-0.983 0.231l0.013-0.006-6.924 3.404 1.1-7.636c0.014-0.094 0.022-0.202 0.022-0.313 0-0.596-0.237-1.138-0.623-1.534l0.001 0-5.378-5.532 7.6-1.314c0.687-0.122 1.254-0.547 1.566-1.13l0.006-0.012z"></path>
</symbol>




<symbol id="icon-cross" viewBox="0 0 32 32">
<path stroke-linejoin="round" stroke-linecap="round" stroke-miterlimit="4" stroke-width="3" d="M24 8l-16 16M8 8l16 16"></path>
</symbol>



<symbol id="icon-tv" viewBox="0 0 32 32">
<path stroke-linejoin="round" stroke-linecap="round" stroke-miterlimit="4" stroke-width="1.7455" d="M23.273 25.697h-15.515c-2.149 0-3.879-1.73-3.879-3.879v-9.697c0-2.149 1.73-3.879 3.879-3.879h15.515c2.149 0 3.879 1.73 3.879 3.879v9.697c0 2.149-1.73 3.879-3.879 3.879z"></path>
<path stroke-linejoin="round" stroke-linecap="round" stroke-miterlimit="4" stroke-width="1.7455" d="M11.636 29.576h7.758"></path>
<path stroke-linejoin="round" stroke-linecap="round" stroke-miterlimit="4" stroke-width="1.7455" d="M15.515 8.242l5.818-5.818"></path>
<path stroke-linejoin="round" stroke-linecap="round" stroke-miterlimit="4" stroke-width="1.7455" d="M15.515 8.242l-5.818-5.818"></path>
</symbol>

<symbol id="icon-van" viewBox="0 0 46 32">
<path d="M2.608 1.8h12.409c0.105 0 0.203-0.040 0.278-0.112l1.192-1.163c0.346-0.338 0.807-0.524 1.297-0.524h18.817c0.876 0 1.69 0.425 2.176 1.136l2.255 3.3c0.32 0.468 0.349 1.067 0.077 1.564s-0.8 0.805-1.377 0.805h-9.698v0.956h4.967c1.317 0 2.501 0.763 3.018 1.945l2.908 6.65 2.548 0.994c1.36 0.531 2.24 1.797 2.24 3.227v6.158c0 0.918-0.766 1.666-1.708 1.666h-2.964c-0.345 2.039-2.164 3.599-4.35 3.599s-4.005-1.561-4.35-3.599h-16.203c-0.345 2.039-2.164 3.599-4.35 3.599s-4.005-1.561-4.35-3.599h-5.921c-0.837 0-1.518-0.664-1.518-1.481v-22.576c0-1.403 1.17-2.544 2.608-2.544zM36.692 30.594c1.637 0 2.969-1.299 2.969-2.896s-1.332-2.896-2.969-2.896c-1.637 0-2.969 1.299-2.969 2.896s1.332 2.896 2.969 2.896zM30.034 26.995h2.307c0.006-0.035 0.013-0.070 0.020-0.105 0.005-0.024 0.009-0.047 0.014-0.071 0.012-0.055 0.025-0.11 0.039-0.164 0.003-0.011 0.005-0.023 0.009-0.034 0.017-0.066 0.036-0.13 0.057-0.195 0.006-0.019 0.013-0.037 0.019-0.056 0.015-0.045 0.031-0.090 0.047-0.134 0.009-0.024 0.018-0.047 0.028-0.071 0.015-0.039 0.030-0.078 0.047-0.116 0.010-0.025 0.022-0.050 0.033-0.075 0.016-0.037 0.032-0.072 0.050-0.108 0.013-0.025 0.025-0.050 0.038-0.075 0.017-0.034 0.036-0.069 0.054-0.103 0.013-0.025 0.027-0.049 0.041-0.074 0.019-0.034 0.039-0.067 0.059-0.101 0.014-0.024 0.029-0.047 0.043-0.071 0.022-0.034 0.044-0.067 0.066-0.101 0.015-0.022 0.029-0.044 0.044-0.065 0.025-0.035 0.051-0.070 0.077-0.105 0.013-0.018 0.026-0.037 0.040-0.055 0.036-0.046 0.072-0.090 0.109-0.135 0.005-0.007 0.010-0.014 0.016-0.020 0.043-0.051 0.087-0.1 0.132-0.148 0.014-0.015 0.028-0.029 0.043-0.044 0.032-0.033 0.063-0.066 0.096-0.099 0.018-0.018 0.038-0.035 0.056-0.053 0.029-0.028 0.059-0.056 0.090-0.084 0.020-0.018 0.041-0.036 0.062-0.054 0.030-0.026 0.060-0.051 0.090-0.077l0.066-0.052c0.031-0.024 0.062-0.048 0.093-0.071 0.022-0.017 0.045-0.034 0.069-0.050 0.032-0.023 0.064-0.045 0.097-0.068 0.023-0.015 0.046-0.031 0.069-0.046 0.034-0.023 0.069-0.044 0.104-0.065 0.022-0.014 0.045-0.028 0.068-0.041 0.038-0.023 0.077-0.044 0.116-0.065 0.020-0.011 0.040-0.023 0.059-0.033 0.056-0.029 0.112-0.057 0.168-0.084 0.005-0.002 0.009-0.004 0.013-0.006 0.061-0.029 0.123-0.056 0.186-0.082 0.020-0.008 0.041-0.016 0.061-0.024 0.043-0.017 0.086-0.034 0.13-0.050 0.025-0.009 0.050-0.017 0.075-0.026 0.040-0.014 0.080-0.027 0.12-0.039 0.027-0.008 0.054-0.016 0.082-0.024 0.039-0.011 0.078-0.023 0.118-0.033 0.028-0.007 0.056-0.015 0.085-0.021 0.039-0.009 0.078-0.018 0.118-0.026 0.029-0.006 0.058-0.012 0.087-0.018 0.040-0.007 0.081-0.015 0.122-0.021 0.029-0.005 0.057-0.010 0.086-0.014 0.042-0.006 0.085-0.011 0.128-0.016 0.027-0.003 0.055-0.007 0.082-0.009 0.047-0.004 0.095-0.008 0.143-0.011 0.024-0.002 0.047-0.004 0.070-0.005 0.072-0.004 0.144-0.006 0.216-0.006s0.144 0.002 0.216 0.006c0.024 0.001 0.047 0.003 0.070 0.005 0.048 0.003 0.096 0.006 0.143 0.011 0.028 0.002 0.055 0.006 0.082 0.009 0.043 0.005 0.086 0.010 0.128 0.016 0.029 0.004 0.058 0.008 0.087 0.014 0.041 0.006 0.081 0.014 0.122 0.021 0.029 0.006 0.058 0.012 0.087 0.018 0.040 0.008 0.079 0.017 0.118 0.026 0.029 0.007 0.057 0.014 0.085 0.021 0.039 0.010 0.078 0.021 0.118 0.033 0.028 0.008 0.055 0.016 0.082 0.024 0.040 0.012 0.080 0.026 0.12 0.039 0.025 0.009 0.050 0.017 0.075 0.026 0.044 0.016 0.087 0.033 0.13 0.050 0.020 0.008 0.041 0.016 0.061 0.024 0.062 0.026 0.125 0.053 0.186 0.082 0.005 0.002 0.009 0.005 0.013 0.006 0.057 0.027 0.112 0.055 0.168 0.084 0.020 0.011 0.039 0.022 0.059 0.033 0.039 0.021 0.078 0.043 0.116 0.065 0.023 0.014 0.045 0.028 0.068 0.041 0.035 0.021 0.070 0.043 0.104 0.065 0.023 0.015 0.046 0.031 0.069 0.046 0.033 0.023 0.065 0.044 0.097 0.068 0.023 0.016 0.046 0.033 0.069 0.050 0.031 0.024 0.062 0.047 0.093 0.071l0.066 0.052c0.031 0.025 0.061 0.051 0.090 0.077 0.021 0.018 0.041 0.036 0.062 0.054 0.031 0.028 0.060 0.056 0.090 0.084 0.018 0.017 0.037 0.035 0.056 0.053 0.033 0.033 0.065 0.066 0.096 0.099 0.014 0.015 0.029 0.029 0.043 0.044 0.045 0.048 0.089 0.098 0.132 0.148 0.006 0.007 0.011 0.014 0.016 0.020 0.037 0.044 0.073 0.089 0.109 0.135 0.014 0.018 0.027 0.037 0.040 0.055 0.026 0.035 0.052 0.070 0.077 0.105 0.015 0.021 0.029 0.043 0.044 0.065 0.022 0.034 0.044 0.067 0.066 0.101 0.014 0.024 0.029 0.047 0.043 0.071 0.020 0.033 0.040 0.067 0.059 0.101 0.014 0.025 0.028 0.049 0.041 0.074 0.018 0.034 0.037 0.069 0.054 0.103 0.013 0.025 0.025 0.050 0.038 0.075 0.017 0.036 0.033 0.071 0.050 0.108 0.011 0.025 0.023 0.049 0.033 0.075 0.017 0.038 0.032 0.077 0.047 0.116 0.010 0.024 0.019 0.047 0.028 0.071 0.016 0.044 0.032 0.089 0.047 0.134 0.006 0.019 0.013 0.038 0.019 0.056 0.020 0.064 0.039 0.129 0.056 0.195 0.003 0.011 0.006 0.023 0.009 0.034 0.014 0.055 0.027 0.109 0.039 0.164 0.005 0.024 0.009 0.047 0.014 0.071 0.007 0.035 0.014 0.069 0.020 0.105h2.963c0.147 0 0.266-0.116 0.266-0.26v-2.946h-1.124v-1.406h1.124v-1.806c0-0.851-0.523-1.606-1.333-1.922l-2.697-1.052h-10.209v9.392zM30.034 16.197h9.257l-2.598-5.939c-0.29-0.662-0.954-1.090-1.692-1.090h-4.967v7.030zM11.789 30.594c1.637 0 2.969-1.299 2.969-2.896s-1.332-2.896-2.969-2.896c-0.051 0-0.102 0.001-0.153 0.004-1.364 0.067-2.488 1.038-2.756 2.309-0.010 0.047-0.019 0.095-0.027 0.143-0.015 0.096-0.025 0.193-0.030 0.291-0.003 0.049-0.004 0.099-0.004 0.149 0 1.597 1.332 2.896 2.969 2.896zM1.441 22.383h1.124v1.406h-1.124v3.131c0 0.041 0.035 0.075 0.077 0.075h5.92c0.006-0.035 0.013-0.069 0.020-0.104 0.005-0.024 0.009-0.048 0.014-0.072 0.012-0.054 0.024-0.107 0.038-0.16 0.003-0.012 0.006-0.025 0.009-0.038 0.017-0.065 0.036-0.129 0.056-0.193 0.006-0.020 0.013-0.039 0.020-0.058 0.015-0.044 0.030-0.089 0.046-0.132 0.009-0.025 0.019-0.048 0.028-0.072 0.015-0.038 0.031-0.077 0.046-0.114 0.011-0.026 0.022-0.051 0.034-0.076 0.016-0.036 0.032-0.071 0.050-0.106 0.012-0.026 0.025-0.051 0.038-0.076 0.017-0.034 0.035-0.068 0.054-0.102 0.014-0.025 0.028-0.049 0.042-0.074 0.020-0.034 0.039-0.067 0.059-0.1 0.014-0.024 0.029-0.048 0.044-0.071 0.021-0.034 0.043-0.067 0.066-0.1 0.014-0.023 0.029-0.045 0.044-0.066 0.025-0.035 0.051-0.070 0.076-0.104 0.014-0.019 0.028-0.038 0.042-0.057 0.035-0.044 0.070-0.088 0.106-0.132 0.006-0.008 0.012-0.016 0.018-0.023 0.043-0.051 0.087-0.1 0.132-0.148 0.014-0.015 0.029-0.030 0.043-0.045 0.032-0.033 0.063-0.066 0.096-0.098 0.018-0.018 0.037-0.035 0.056-0.053 0.029-0.028 0.059-0.056 0.089-0.083 0.020-0.018 0.041-0.036 0.062-0.055 0.029-0.025 0.059-0.051 0.090-0.075 0.022-0.018 0.044-0.036 0.066-0.053 0.030-0.024 0.061-0.047 0.092-0.071 0.022-0.017 0.046-0.034 0.069-0.050 0.032-0.023 0.064-0.045 0.096-0.067 0.024-0.016 0.047-0.031 0.070-0.047 0.034-0.023 0.069-0.044 0.103-0.065 0.023-0.014 0.046-0.028 0.069-0.042 0.038-0.023 0.077-0.044 0.116-0.065 0.020-0.011 0.040-0.023 0.061-0.033 0.055-0.029 0.11-0.057 0.167-0.083 0.005-0.002 0.009-0.005 0.014-0.007 0.061-0.029 0.123-0.056 0.186-0.082 0.020-0.008 0.041-0.016 0.061-0.024 0.043-0.017 0.086-0.034 0.13-0.050 0.025-0.009 0.050-0.017 0.076-0.026 0.039-0.014 0.079-0.027 0.119-0.039 0.027-0.008 0.055-0.016 0.082-0.024 0.039-0.011 0.078-0.023 0.118-0.033 0.028-0.007 0.056-0.015 0.085-0.021 0.039-0.009 0.078-0.018 0.118-0.026 0.029-0.006 0.058-0.012 0.087-0.018 0.040-0.007 0.081-0.015 0.122-0.021 0.029-0.005 0.057-0.010 0.086-0.014 0.042-0.006 0.085-0.011 0.128-0.016 0.027-0.003 0.055-0.007 0.082-0.009 0.047-0.004 0.095-0.008 0.143-0.011 0.024-0.002 0.047-0.004 0.070-0.005 0.072-0.004 0.144-0.006 0.216-0.006s0.144 0.002 0.216 0.006c0.024 0.001 0.047 0.003 0.070 0.005 0.048 0.003 0.096 0.006 0.143 0.011 0.028 0.002 0.055 0.006 0.082 0.009 0.043 0.005 0.086 0.010 0.128 0.016 0.029 0.004 0.058 0.008 0.086 0.014 0.041 0.006 0.081 0.014 0.122 0.021 0.029 0.006 0.058 0.012 0.087 0.018 0.040 0.008 0.079 0.017 0.118 0.026 0.029 0.007 0.057 0.014 0.085 0.021 0.039 0.010 0.078 0.021 0.118 0.033 0.027 0.008 0.055 0.016 0.082 0.024 0.040 0.012 0.080 0.026 0.119 0.039 0.025 0.009 0.051 0.017 0.076 0.026 0.044 0.016 0.086 0.033 0.13 0.050 0.020 0.008 0.041 0.016 0.061 0.024 0.062 0.026 0.124 0.053 0.186 0.082 0.005 0.002 0.010 0.005 0.014 0.007 0.056 0.026 0.112 0.054 0.167 0.083 0.021 0.011 0.040 0.022 0.060 0.033 0.039 0.021 0.078 0.043 0.116 0.065 0.023 0.014 0.046 0.028 0.069 0.042 0.035 0.021 0.069 0.042 0.103 0.065 0.023 0.015 0.046 0.031 0.070 0.047 0.032 0.022 0.065 0.044 0.096 0.067 0.023 0.016 0.046 0.033 0.069 0.050 0.031 0.024 0.062 0.047 0.092 0.071 0.023 0.017 0.044 0.035 0.066 0.053 0.031 0.025 0.061 0.050 0.090 0.076 0.021 0.018 0.042 0.036 0.062 0.054 0.030 0.028 0.060 0.056 0.090 0.084 0.018 0.017 0.037 0.035 0.056 0.053 0.032 0.032 0.065 0.065 0.096 0.098 0.014 0.015 0.029 0.029 0.043 0.044 0.045 0.048 0.089 0.098 0.132 0.148 0.006 0.007 0.012 0.015 0.017 0.021 0.036 0.044 0.073 0.088 0.107 0.134 0.014 0.018 0.028 0.037 0.042 0.055 0.026 0.035 0.052 0.070 0.077 0.105 0.015 0.021 0.029 0.044 0.044 0.066 0.023 0.033 0.044 0.066 0.066 0.1 0.015 0.024 0.029 0.047 0.044 0.071 0.020 0.033 0.040 0.067 0.059 0.101 0.014 0.025 0.028 0.049 0.041 0.074 0.019 0.034 0.037 0.069 0.055 0.103 0.013 0.025 0.025 0.050 0.037 0.075 0.017 0.036 0.034 0.072 0.050 0.108 0.012 0.025 0.023 0.049 0.033 0.075 0.017 0.038 0.032 0.077 0.047 0.116 0.009 0.024 0.018 0.047 0.028 0.071 0.017 0.045 0.032 0.090 0.047 0.135 0.006 0.019 0.013 0.037 0.019 0.055 0.020 0.064 0.039 0.129 0.057 0.195 0.002 0.010 0.005 0.021 0.007 0.031 0.014 0.056 0.028 0.111 0.040 0.168 0.005 0.023 0.009 0.046 0.013 0.069 0.007 0.035 0.014 0.070 0.021 0.106h12.453v-20.893c0-0.388 0.323-0.703 0.721-0.703h10.419c0.018 0 0.073 0 0.107-0.062s0.004-0.106-0.006-0.12l-2.255-3.3c-0.218-0.319-0.583-0.51-0.977-0.51h-18.817c-0.105 0-0.204 0.040-0.278 0.112l-1.192 1.163c-0.346 0.338-0.807 0.524-1.297 0.524h-12.409c-0.643 0-1.167 0.511-1.167 1.138v18.039z"></path>
<path d="M5.536 7.198h8.814c1.019 0 1.848 0.809 1.848 1.802v4.1c0 0.994-0.829 1.802-1.848 1.802h-8.815c-1.019 0-1.848-0.809-1.848-1.802v-4.1c0.001-0.994 0.83-1.802 1.848-1.802zM5.129 13.1c0 0.218 0.182 0.396 0.406 0.396h8.814c0.224 0 0.406-0.178 0.406-0.396v-4.1c0-0.218-0.182-0.396-0.406-0.396h-8.815c-0.224 0-0.406 0.178-0.406 0.396l0.001 4.1z"></path>
</symbol>

<symbol id="icon-fully" viewBox="0 0 44 32">
<path d="M2.518 2.289h11.981c0.101 0 0.196-0.039 0.268-0.109l1.151-1.123c0.335-0.326 0.779-0.506 1.252-0.506h18.168c0.846 0 1.631 0.41 2.101 1.097l2.177 3.186c0.309 0.452 0.337 1.031 0.074 1.51s-0.773 0.777-1.33 0.777h-9.364v0.923h4.796c1.271 0 2.415 0.737 2.914 1.878l2.808 6.42 2.46 0.96c1.314 0.513 2.162 1.735 2.162 3.116v5.946c0 0.887-0.74 1.608-1.649 1.608h-2.862c-0.333 1.968-2.089 3.475-4.2 3.475s-3.867-1.507-4.2-3.475h-15.645c-0.333 1.968-2.090 3.475-4.2 3.475s-3.867-1.507-4.2-3.475h-5.717c-0.808 0-1.466-0.641-1.466-1.43v-21.797c0-1.355 1.129-2.457 2.518-2.457zM35.427 30.091c1.581 0 2.867-1.254 2.867-2.796s-1.286-2.796-2.867-2.796c-1.581 0-2.866 1.254-2.866 2.796s1.286 2.796 2.866 2.796zM28.998 26.616h2.228c0.006-0.034 0.013-0.067 0.020-0.101 0.004-0.023 0.008-0.046 0.013-0.068 0.011-0.053 0.024-0.106 0.037-0.159 0.003-0.011 0.005-0.022 0.008-0.033 0.017-0.063 0.035-0.126 0.055-0.188 0.006-0.018 0.012-0.036 0.018-0.054 0.014-0.043 0.029-0.087 0.045-0.13 0.009-0.023 0.018-0.046 0.027-0.068 0.014-0.038 0.029-0.075 0.045-0.112 0.010-0.024 0.021-0.048 0.032-0.072 0.016-0.035 0.031-0.070 0.048-0.104 0.012-0.024 0.024-0.048 0.037-0.073 0.017-0.033 0.034-0.067 0.052-0.099 0.013-0.024 0.026-0.048 0.040-0.072 0.018-0.033 0.038-0.065 0.057-0.097 0.014-0.023 0.028-0.046 0.042-0.068 0.021-0.033 0.042-0.065 0.064-0.097 0.014-0.021 0.028-0.042 0.043-0.063 0.024-0.034 0.049-0.068 0.075-0.102 0.013-0.018 0.026-0.036 0.039-0.053 0.035-0.045 0.070-0.087 0.105-0.13 0.005-0.006 0.010-0.013 0.016-0.020 0.041-0.049 0.084-0.097 0.127-0.143 0.013-0.015 0.027-0.028 0.041-0.042 0.031-0.032 0.061-0.064 0.093-0.096 0.018-0.017 0.036-0.034 0.054-0.051 0.028-0.027 0.057-0.054 0.087-0.081 0.019-0.017 0.039-0.035 0.060-0.052 0.029-0.025 0.058-0.049 0.087-0.074l0.064-0.050c0.029-0.023 0.059-0.046 0.090-0.069 0.022-0.016 0.044-0.033 0.066-0.048 0.031-0.022 0.062-0.043 0.093-0.065 0.022-0.015 0.045-0.030 0.067-0.044 0.033-0.022 0.067-0.042 0.1-0.063 0.022-0.013 0.043-0.027 0.066-0.040 0.037-0.022 0.075-0.042 0.112-0.063 0.019-0.011 0.038-0.022 0.057-0.032 0.054-0.028 0.108-0.055 0.163-0.082 0.004-0.002 0.008-0.004 0.013-0.006 0.059-0.028 0.119-0.054 0.179-0.079 0.020-0.008 0.039-0.015 0.059-0.023 0.041-0.016 0.083-0.033 0.125-0.048 0.024-0.009 0.048-0.016 0.072-0.025 0.038-0.013 0.077-0.026 0.116-0.038 0.026-0.008 0.052-0.016 0.079-0.023 0.038-0.011 0.076-0.022 0.114-0.032 0.027-0.007 0.054-0.014 0.082-0.021 0.038-0.009 0.076-0.017 0.114-0.026 0.028-0.006 0.056-0.012 0.084-0.017 0.039-0.007 0.078-0.014 0.118-0.020 0.028-0.005 0.055-0.009 0.083-0.013 0.041-0.006 0.082-0.011 0.124-0.016 0.026-0.003 0.053-0.006 0.080-0.009 0.046-0.004 0.092-0.008 0.138-0.010 0.023-0.002 0.045-0.004 0.068-0.004 0.070-0.004 0.139-0.005 0.209-0.005s0.139 0.002 0.209 0.005c0.023 0.001 0.045 0.003 0.068 0.004 0.046 0.003 0.092 0.006 0.138 0.010 0.027 0.002 0.053 0.006 0.080 0.009 0.042 0.005 0.083 0.010 0.124 0.016 0.028 0.004 0.056 0.008 0.084 0.013 0.039 0.006 0.078 0.013 0.117 0.020 0.028 0.005 0.056 0.011 0.084 0.017 0.038 0.008 0.076 0.016 0.114 0.026 0.028 0.007 0.055 0.014 0.082 0.021 0.038 0.010 0.076 0.021 0.114 0.032 0.027 0.008 0.053 0.015 0.079 0.023 0.039 0.012 0.077 0.025 0.116 0.038 0.024 0.009 0.048 0.016 0.072 0.025 0.042 0.016 0.084 0.032 0.125 0.048 0.019 0.008 0.039 0.015 0.059 0.023 0.060 0.025 0.12 0.052 0.179 0.079 0.005 0.002 0.008 0.004 0.013 0.006 0.055 0.026 0.109 0.053 0.163 0.082 0.019 0.010 0.038 0.021 0.057 0.032 0.038 0.021 0.076 0.041 0.112 0.063 0.022 0.013 0.044 0.027 0.066 0.040 0.033 0.021 0.067 0.041 0.1 0.063 0.022 0.015 0.044 0.030 0.067 0.044 0.032 0.022 0.063 0.043 0.094 0.065 0.022 0.016 0.044 0.032 0.066 0.048 0.030 0.023 0.060 0.046 0.090 0.069l0.063 0.050c0.029 0.024 0.058 0.049 0.087 0.074 0.020 0.017 0.040 0.035 0.060 0.052 0.029 0.027 0.058 0.054 0.087 0.081 0.018 0.017 0.036 0.034 0.054 0.051 0.032 0.031 0.062 0.064 0.093 0.096 0.014 0.014 0.028 0.028 0.041 0.042 0.043 0.047 0.086 0.094 0.127 0.143 0.006 0.006 0.010 0.013 0.016 0.020 0.036 0.043 0.071 0.086 0.105 0.13 0.013 0.017 0.026 0.035 0.039 0.053 0.026 0.034 0.051 0.067 0.075 0.102 0.014 0.021 0.028 0.042 0.043 0.063 0.022 0.033 0.043 0.065 0.064 0.097 0.014 0.023 0.028 0.046 0.042 0.068 0.020 0.032 0.039 0.065 0.057 0.097 0.013 0.024 0.027 0.048 0.039 0.072 0.018 0.033 0.036 0.066 0.052 0.099 0.013 0.024 0.025 0.048 0.037 0.073 0.017 0.035 0.032 0.069 0.048 0.104 0.011 0.024 0.022 0.048 0.032 0.072 0.016 0.037 0.031 0.074 0.045 0.112 0.009 0.023 0.018 0.046 0.027 0.068 0.016 0.043 0.031 0.086 0.045 0.13 0.006 0.018 0.013 0.036 0.018 0.054 0.019 0.062 0.038 0.124 0.054 0.188 0.003 0.011 0.006 0.022 0.008 0.033 0.013 0.053 0.026 0.105 0.037 0.159 0.005 0.023 0.009 0.046 0.013 0.068 0.007 0.034 0.014 0.067 0.019 0.101h2.861c0.142 0 0.257-0.112 0.257-0.251v-2.844h-1.085v-1.358h1.085v-1.744c0-0.822-0.505-1.55-1.287-1.855l-2.604-1.016h-9.857v9.068zM28.998 16.19h8.938l-2.508-5.735c-0.28-0.64-0.921-1.053-1.634-1.053h-4.796v6.787zM11.382 30.091c1.581 0 2.866-1.254 2.866-2.796s-1.286-2.796-2.866-2.796c-0.050 0-0.099 0.001-0.148 0.004-1.317 0.065-2.402 1.002-2.661 2.23-0.009 0.046-0.018 0.092-0.026 0.138-0.014 0.092-0.024 0.186-0.029 0.281-0.003 0.048-0.004 0.096-0.004 0.144 0 1.542 1.286 2.796 2.867 2.796zM1.391 22.163h1.085v1.358h-1.085v3.023c0 0.040 0.033 0.072 0.074 0.072h5.716c0.006-0.034 0.013-0.067 0.019-0.1 0.004-0.023 0.008-0.047 0.013-0.070 0.011-0.052 0.023-0.104 0.037-0.155 0.003-0.012 0.006-0.024 0.009-0.036 0.017-0.063 0.035-0.125 0.055-0.187 0.006-0.019 0.013-0.038 0.019-0.056 0.014-0.043 0.029-0.086 0.045-0.128 0.009-0.024 0.018-0.047 0.027-0.070 0.014-0.037 0.029-0.074 0.045-0.11 0.011-0.025 0.022-0.049 0.033-0.074 0.016-0.034 0.031-0.069 0.048-0.103 0.012-0.025 0.024-0.049 0.037-0.074 0.017-0.033 0.034-0.066 0.052-0.099 0.013-0.024 0.027-0.048 0.040-0.072 0.019-0.033 0.038-0.065 0.057-0.097 0.014-0.023 0.028-0.046 0.042-0.069 0.021-0.033 0.042-0.065 0.063-0.096 0.014-0.022 0.028-0.043 0.043-0.064 0.024-0.034 0.049-0.067 0.073-0.1 0.013-0.018 0.027-0.037 0.041-0.055 0.033-0.043 0.067-0.085 0.102-0.127 0.006-0.008 0.012-0.015 0.018-0.022 0.042-0.049 0.084-0.097 0.127-0.143 0.014-0.015 0.028-0.029 0.042-0.043 0.031-0.032 0.061-0.064 0.092-0.094 0.018-0.017 0.036-0.034 0.055-0.052 0.028-0.027 0.057-0.054 0.086-0.080 0.020-0.017 0.040-0.035 0.060-0.053 0.028-0.024 0.057-0.049 0.087-0.073 0.021-0.017 0.042-0.035 0.064-0.052 0.029-0.023 0.059-0.046 0.089-0.068 0.022-0.016 0.044-0.033 0.066-0.048 0.031-0.022 0.062-0.043 0.093-0.065 0.023-0.015 0.045-0.030 0.067-0.045 0.033-0.022 0.066-0.042 0.1-0.062 0.022-0.014 0.044-0.027 0.066-0.040 0.037-0.022 0.074-0.042 0.112-0.063 0.020-0.011 0.038-0.022 0.058-0.032 0.053-0.028 0.106-0.055 0.161-0.080 0.004-0.002 0.009-0.005 0.014-0.007 0.059-0.028 0.119-0.054 0.179-0.079 0.019-0.008 0.040-0.015 0.059-0.023 0.042-0.016 0.083-0.033 0.125-0.048 0.024-0.009 0.048-0.016 0.073-0.025 0.038-0.013 0.076-0.026 0.115-0.038 0.026-0.008 0.053-0.016 0.079-0.023 0.038-0.011 0.076-0.022 0.114-0.032 0.027-0.007 0.055-0.014 0.082-0.021 0.038-0.009 0.076-0.017 0.114-0.026 0.028-0.006 0.056-0.012 0.084-0.017 0.039-0.007 0.078-0.014 0.117-0.020 0.028-0.005 0.055-0.009 0.084-0.013 0.041-0.006 0.082-0.011 0.124-0.016 0.026-0.003 0.053-0.006 0.080-0.009 0.046-0.004 0.092-0.008 0.138-0.010 0.023-0.002 0.045-0.004 0.068-0.004 0.070-0.004 0.139-0.005 0.209-0.005s0.139 0.002 0.209 0.005c0.023 0.001 0.045 0.003 0.068 0.004 0.046 0.003 0.092 0.006 0.138 0.010 0.027 0.002 0.054 0.006 0.080 0.009 0.042 0.005 0.083 0.010 0.124 0.016 0.028 0.004 0.056 0.008 0.083 0.013 0.040 0.006 0.078 0.013 0.118 0.020 0.028 0.005 0.056 0.011 0.084 0.017 0.038 0.008 0.076 0.016 0.114 0.026 0.028 0.007 0.055 0.014 0.082 0.021 0.038 0.010 0.076 0.021 0.114 0.032 0.026 0.008 0.053 0.015 0.079 0.023 0.039 0.012 0.077 0.025 0.115 0.038 0.024 0.009 0.049 0.016 0.073 0.025 0.042 0.016 0.084 0.032 0.125 0.048 0.019 0.008 0.040 0.015 0.059 0.023 0.060 0.025 0.12 0.052 0.179 0.079 0.005 0.002 0.009 0.004 0.014 0.007 0.055 0.026 0.108 0.052 0.161 0.080 0.020 0.010 0.039 0.021 0.058 0.032 0.037 0.021 0.075 0.041 0.112 0.063 0.022 0.013 0.044 0.027 0.066 0.040 0.033 0.020 0.067 0.041 0.1 0.062 0.022 0.015 0.045 0.030 0.067 0.045 0.031 0.021 0.062 0.042 0.093 0.065 0.022 0.016 0.045 0.032 0.066 0.048 0.030 0.023 0.060 0.046 0.089 0.068 0.022 0.017 0.043 0.034 0.064 0.052 0.030 0.024 0.058 0.048 0.087 0.073 0.020 0.017 0.041 0.035 0.060 0.052 0.029 0.027 0.058 0.054 0.087 0.081 0.018 0.017 0.036 0.034 0.054 0.051 0.031 0.031 0.062 0.063 0.093 0.095 0.013 0.014 0.028 0.028 0.041 0.043 0.043 0.047 0.086 0.094 0.127 0.143 0.006 0.007 0.011 0.014 0.017 0.021 0.035 0.042 0.070 0.085 0.104 0.129 0.014 0.017 0.027 0.035 0.040 0.053 0.025 0.034 0.050 0.067 0.074 0.102 0.014 0.021 0.028 0.042 0.043 0.064 0.022 0.032 0.043 0.064 0.063 0.097 0.014 0.023 0.028 0.046 0.042 0.068 0.020 0.032 0.039 0.065 0.057 0.097 0.013 0.024 0.027 0.048 0.040 0.072 0.018 0.033 0.036 0.066 0.053 0.099 0.012 0.024 0.024 0.048 0.036 0.073 0.017 0.035 0.032 0.069 0.048 0.104 0.011 0.024 0.022 0.048 0.032 0.072 0.016 0.037 0.031 0.074 0.046 0.112 0.009 0.023 0.018 0.046 0.027 0.068 0.016 0.043 0.031 0.087 0.045 0.131 0.006 0.018 0.013 0.035 0.018 0.053 0.020 0.062 0.038 0.125 0.055 0.188 0.002 0.010 0.004 0.020 0.007 0.030 0.014 0.054 0.027 0.107 0.038 0.162 0.005 0.022 0.009 0.044 0.013 0.066 0.007 0.034 0.014 0.068 0.020 0.103h12.024v-20.172c0-0.375 0.312-0.679 0.696-0.679h10.059c0.017 0 0.070 0 0.103-0.060s0.004-0.103-0.006-0.116l-2.177-3.186c-0.211-0.308-0.563-0.492-0.943-0.492h-18.168c-0.101 0-0.197 0.039-0.268 0.109l-1.151 1.123c-0.334 0.326-0.779 0.506-1.252 0.506h-11.981c-0.621 0-1.127 0.493-1.127 1.099v17.417z"></path>
<path d="M19.422 7.501h4.401c0.889 0 1.612 0.705 1.612 1.573v14.527c0 0.375-0.312 0.679-0.696 0.679h-6.234c-0.384 0-0.696-0.304-0.696-0.679v-14.527c-0.001-0.868 0.722-1.573 1.612-1.573zM19.201 22.922h4.842v-7.982h-4.842v7.982zM19.201 13.583h4.842v-4.508c0-0.119-0.099-0.216-0.221-0.216h-4.401c-0.122 0-0.221 0.097-0.221 0.216l0.001 4.508z"></path>
</symbol>

<symbol id="icon-alcove" viewBox="0 0 45 32">
<path d="M2.518 2.289h11.981c0.101 0 0.196-0.039 0.268-0.109l1.151-1.123c0.335-0.326 0.779-0.506 1.252-0.506h18.168c0.846 0 1.631 0.41 2.101 1.097l2.177 3.186c0.309 0.452 0.337 1.031 0.074 1.51s-0.773 0.777-1.33 0.777h-9.364v0.923h4.796c1.271 0 2.415 0.737 2.914 1.878l2.808 6.42 2.46 0.96c1.314 0.513 2.162 1.735 2.162 3.116v5.946c0 0.887-0.74 1.608-1.649 1.608h-2.862c-0.333 1.968-2.089 3.475-4.2 3.475s-3.867-1.507-4.2-3.475h-15.645c-0.333 1.968-2.090 3.475-4.2 3.475s-3.867-1.507-4.2-3.475h-5.717c-0.808 0-1.466-0.641-1.466-1.43v-21.797c0-1.355 1.129-2.457 2.518-2.457zM35.427 30.091c1.581 0 2.867-1.254 2.867-2.796s-1.286-2.796-2.867-2.796c-1.581 0-2.866 1.254-2.866 2.796s1.286 2.796 2.866 2.796zM28.998 26.616h2.228c0.006-0.034 0.013-0.067 0.020-0.101 0.004-0.023 0.008-0.046 0.013-0.068 0.011-0.053 0.024-0.106 0.037-0.159 0.003-0.011 0.005-0.022 0.008-0.033 0.017-0.063 0.035-0.126 0.055-0.188 0.006-0.018 0.012-0.036 0.018-0.054 0.014-0.043 0.029-0.087 0.045-0.13 0.009-0.023 0.018-0.046 0.027-0.068 0.014-0.038 0.029-0.075 0.045-0.112 0.010-0.024 0.021-0.048 0.032-0.072 0.016-0.035 0.031-0.070 0.048-0.104 0.012-0.024 0.024-0.048 0.037-0.073 0.017-0.033 0.034-0.067 0.052-0.099 0.013-0.024 0.026-0.048 0.040-0.072 0.018-0.033 0.038-0.065 0.057-0.097 0.014-0.023 0.028-0.046 0.042-0.068 0.021-0.033 0.042-0.065 0.064-0.097 0.014-0.021 0.028-0.042 0.043-0.063 0.024-0.034 0.049-0.068 0.075-0.102 0.013-0.018 0.026-0.036 0.039-0.053 0.035-0.045 0.070-0.087 0.105-0.13 0.005-0.006 0.010-0.013 0.016-0.020 0.041-0.049 0.084-0.097 0.127-0.143 0.013-0.015 0.027-0.028 0.041-0.042 0.031-0.032 0.061-0.064 0.093-0.096 0.018-0.017 0.036-0.034 0.054-0.051 0.028-0.027 0.057-0.054 0.087-0.081 0.019-0.017 0.039-0.035 0.060-0.052 0.029-0.025 0.058-0.049 0.087-0.074l0.064-0.050c0.029-0.023 0.059-0.046 0.090-0.069 0.022-0.016 0.044-0.033 0.066-0.048 0.031-0.022 0.062-0.043 0.093-0.065 0.022-0.015 0.045-0.030 0.067-0.044 0.033-0.022 0.067-0.042 0.1-0.063 0.022-0.013 0.043-0.027 0.066-0.040 0.037-0.022 0.075-0.042 0.112-0.063 0.019-0.011 0.038-0.022 0.057-0.032 0.054-0.028 0.108-0.055 0.163-0.082 0.004-0.002 0.008-0.004 0.013-0.006 0.059-0.028 0.119-0.054 0.179-0.079 0.020-0.008 0.039-0.015 0.059-0.023 0.041-0.016 0.083-0.033 0.125-0.048 0.024-0.009 0.048-0.016 0.072-0.025 0.038-0.013 0.077-0.026 0.116-0.038 0.026-0.008 0.052-0.016 0.079-0.023 0.038-0.011 0.076-0.022 0.114-0.032 0.027-0.007 0.054-0.014 0.082-0.021 0.038-0.009 0.076-0.017 0.114-0.026 0.028-0.006 0.056-0.012 0.084-0.017 0.039-0.007 0.078-0.014 0.118-0.020 0.028-0.005 0.055-0.009 0.083-0.013 0.041-0.006 0.082-0.011 0.124-0.016 0.026-0.003 0.053-0.006 0.080-0.009 0.046-0.004 0.092-0.008 0.138-0.010 0.023-0.002 0.045-0.004 0.068-0.004 0.070-0.004 0.139-0.005 0.209-0.005s0.139 0.002 0.209 0.005c0.023 0.001 0.045 0.003 0.068 0.004 0.046 0.003 0.092 0.006 0.138 0.010 0.027 0.002 0.053 0.006 0.080 0.009 0.042 0.005 0.083 0.010 0.124 0.016 0.028 0.004 0.056 0.008 0.084 0.013 0.039 0.006 0.078 0.013 0.117 0.020 0.028 0.005 0.056 0.011 0.084 0.017 0.038 0.008 0.076 0.016 0.114 0.026 0.028 0.007 0.055 0.014 0.082 0.021 0.038 0.010 0.076 0.021 0.114 0.032 0.027 0.008 0.053 0.015 0.079 0.023 0.039 0.012 0.077 0.025 0.116 0.038 0.024 0.009 0.048 0.016 0.072 0.025 0.042 0.016 0.084 0.032 0.125 0.048 0.019 0.008 0.039 0.015 0.059 0.023 0.060 0.025 0.12 0.052 0.179 0.079 0.005 0.002 0.008 0.004 0.013 0.006 0.055 0.026 0.109 0.053 0.163 0.082 0.019 0.010 0.038 0.021 0.057 0.032 0.038 0.021 0.076 0.041 0.112 0.063 0.022 0.013 0.044 0.027 0.066 0.040 0.033 0.021 0.067 0.041 0.1 0.063 0.022 0.015 0.044 0.030 0.067 0.044 0.032 0.022 0.063 0.043 0.094 0.065 0.022 0.016 0.044 0.032 0.066 0.048 0.030 0.023 0.060 0.046 0.090 0.069l0.063 0.050c0.029 0.024 0.058 0.049 0.087 0.074 0.020 0.017 0.040 0.035 0.060 0.052 0.029 0.027 0.058 0.054 0.087 0.081 0.018 0.017 0.036 0.034 0.054 0.051 0.032 0.031 0.062 0.064 0.093 0.096 0.014 0.014 0.028 0.028 0.041 0.042 0.043 0.047 0.086 0.094 0.127 0.143 0.006 0.006 0.010 0.013 0.016 0.020 0.036 0.043 0.071 0.086 0.105 0.13 0.013 0.017 0.026 0.035 0.039 0.053 0.026 0.034 0.051 0.067 0.075 0.102 0.014 0.021 0.028 0.042 0.043 0.063 0.022 0.033 0.043 0.065 0.064 0.097 0.014 0.023 0.028 0.046 0.042 0.068 0.020 0.032 0.039 0.065 0.057 0.097 0.013 0.024 0.027 0.048 0.039 0.072 0.018 0.033 0.036 0.066 0.052 0.099 0.013 0.024 0.025 0.048 0.037 0.073 0.017 0.035 0.032 0.069 0.048 0.104 0.011 0.024 0.022 0.048 0.032 0.072 0.016 0.037 0.031 0.074 0.045 0.112 0.009 0.023 0.018 0.046 0.027 0.068 0.016 0.043 0.031 0.086 0.045 0.13 0.006 0.018 0.013 0.036 0.018 0.054 0.019 0.062 0.038 0.124 0.054 0.188 0.003 0.011 0.006 0.022 0.008 0.033 0.013 0.053 0.026 0.105 0.037 0.159 0.005 0.023 0.009 0.046 0.013 0.068 0.007 0.034 0.014 0.067 0.019 0.101h2.861c0.142 0 0.257-0.112 0.257-0.251v-2.844h-1.085v-1.358h1.085v-1.744c0-0.822-0.505-1.55-1.287-1.855l-2.604-1.016h-9.857v9.068zM28.998 16.19h8.938l-2.508-5.735c-0.28-0.64-0.921-1.053-1.634-1.053h-4.796v6.787zM11.382 30.091c1.581 0 2.866-1.254 2.866-2.796s-1.286-2.796-2.866-2.796c-0.050 0-0.099 0.001-0.148 0.004-1.317 0.065-2.402 1.002-2.661 2.23-0.009 0.046-0.018 0.092-0.026 0.138-0.014 0.092-0.024 0.186-0.029 0.281-0.003 0.048-0.004 0.096-0.004 0.144 0 1.542 1.286 2.796 2.867 2.796zM1.391 22.163h1.085v1.358h-1.085v3.023c0 0.040 0.033 0.072 0.074 0.072h5.716c0.006-0.034 0.013-0.067 0.019-0.1 0.004-0.023 0.008-0.047 0.013-0.070 0.011-0.052 0.023-0.104 0.037-0.155 0.003-0.012 0.006-0.024 0.009-0.036 0.017-0.063 0.035-0.125 0.055-0.187 0.006-0.019 0.013-0.038 0.019-0.056 0.014-0.043 0.029-0.086 0.045-0.128 0.009-0.024 0.018-0.047 0.027-0.070 0.014-0.037 0.029-0.074 0.045-0.11 0.011-0.025 0.022-0.049 0.033-0.074 0.016-0.034 0.031-0.069 0.048-0.103 0.012-0.025 0.024-0.049 0.037-0.074 0.017-0.033 0.034-0.066 0.052-0.099 0.013-0.024 0.027-0.048 0.040-0.072 0.019-0.033 0.038-0.065 0.057-0.097 0.014-0.023 0.028-0.046 0.042-0.069 0.021-0.033 0.042-0.065 0.063-0.096 0.014-0.022 0.028-0.043 0.043-0.064 0.024-0.034 0.049-0.067 0.073-0.1 0.013-0.018 0.027-0.037 0.041-0.055 0.033-0.043 0.067-0.085 0.102-0.127 0.006-0.008 0.012-0.015 0.018-0.022 0.042-0.049 0.084-0.097 0.127-0.143 0.014-0.015 0.028-0.029 0.042-0.043 0.031-0.032 0.061-0.064 0.092-0.094 0.018-0.017 0.036-0.034 0.055-0.052 0.028-0.027 0.057-0.054 0.086-0.080 0.020-0.017 0.040-0.035 0.060-0.053 0.028-0.024 0.057-0.049 0.087-0.073 0.021-0.017 0.042-0.035 0.064-0.052 0.029-0.023 0.059-0.046 0.089-0.068 0.022-0.016 0.044-0.033 0.066-0.048 0.031-0.022 0.062-0.043 0.093-0.065 0.023-0.015 0.045-0.030 0.067-0.045 0.033-0.022 0.066-0.042 0.1-0.062 0.022-0.014 0.044-0.027 0.066-0.040 0.037-0.022 0.074-0.042 0.112-0.063 0.020-0.011 0.038-0.022 0.058-0.032 0.053-0.028 0.106-0.055 0.161-0.080 0.004-0.002 0.009-0.005 0.014-0.007 0.059-0.028 0.119-0.054 0.179-0.079 0.019-0.008 0.040-0.015 0.059-0.023 0.042-0.016 0.083-0.033 0.125-0.048 0.024-0.009 0.048-0.016 0.073-0.025 0.038-0.013 0.076-0.026 0.115-0.038 0.026-0.008 0.053-0.016 0.079-0.023 0.038-0.011 0.076-0.022 0.114-0.032 0.027-0.007 0.055-0.014 0.082-0.021 0.038-0.009 0.076-0.017 0.114-0.026 0.028-0.006 0.056-0.012 0.084-0.017 0.039-0.007 0.078-0.014 0.117-0.020 0.028-0.005 0.055-0.009 0.084-0.013 0.041-0.006 0.082-0.011 0.124-0.016 0.026-0.003 0.053-0.006 0.080-0.009 0.046-0.004 0.092-0.008 0.138-0.010 0.023-0.002 0.045-0.004 0.068-0.004 0.070-0.004 0.139-0.005 0.209-0.005s0.139 0.002 0.209 0.005c0.023 0.001 0.045 0.003 0.068 0.004 0.046 0.003 0.092 0.006 0.138 0.010 0.027 0.002 0.054 0.006 0.080 0.009 0.042 0.005 0.083 0.010 0.124 0.016 0.028 0.004 0.056 0.008 0.083 0.013 0.040 0.006 0.078 0.013 0.118 0.020 0.028 0.005 0.056 0.011 0.084 0.017 0.038 0.008 0.076 0.016 0.114 0.026 0.028 0.007 0.055 0.014 0.082 0.021 0.038 0.010 0.076 0.021 0.114 0.032 0.026 0.008 0.053 0.015 0.079 0.023 0.039 0.012 0.077 0.025 0.115 0.038 0.024 0.009 0.049 0.016 0.073 0.025 0.042 0.016 0.084 0.032 0.125 0.048 0.019 0.008 0.040 0.015 0.059 0.023 0.060 0.025 0.12 0.052 0.179 0.079 0.005 0.002 0.009 0.004 0.014 0.007 0.055 0.026 0.108 0.052 0.161 0.080 0.020 0.010 0.039 0.021 0.058 0.032 0.037 0.021 0.075 0.041 0.112 0.063 0.022 0.013 0.044 0.027 0.066 0.040 0.033 0.020 0.067 0.041 0.1 0.062 0.022 0.015 0.045 0.030 0.067 0.045 0.031 0.021 0.062 0.042 0.093 0.065 0.022 0.016 0.045 0.032 0.066 0.048 0.030 0.023 0.060 0.046 0.089 0.068 0.022 0.017 0.043 0.034 0.064 0.052 0.030 0.024 0.058 0.048 0.087 0.073 0.020 0.017 0.041 0.035 0.060 0.052 0.029 0.027 0.058 0.054 0.087 0.081 0.018 0.017 0.036 0.034 0.054 0.051 0.031 0.031 0.062 0.063 0.093 0.095 0.013 0.014 0.028 0.028 0.041 0.043 0.043 0.047 0.086 0.094 0.127 0.143 0.006 0.007 0.011 0.014 0.017 0.021 0.035 0.042 0.070 0.085 0.104 0.129 0.014 0.017 0.027 0.035 0.040 0.053 0.025 0.034 0.050 0.067 0.074 0.102 0.014 0.021 0.028 0.042 0.043 0.064 0.022 0.032 0.043 0.064 0.063 0.097 0.014 0.023 0.028 0.046 0.042 0.068 0.020 0.032 0.039 0.065 0.057 0.097 0.013 0.024 0.027 0.048 0.040 0.072 0.018 0.033 0.036 0.066 0.053 0.099 0.012 0.024 0.024 0.048 0.036 0.073 0.017 0.035 0.032 0.069 0.048 0.104 0.011 0.024 0.022 0.048 0.032 0.072 0.016 0.037 0.031 0.074 0.046 0.112 0.009 0.023 0.018 0.046 0.027 0.068 0.016 0.043 0.031 0.087 0.045 0.131 0.006 0.018 0.013 0.035 0.018 0.053 0.020 0.062 0.038 0.125 0.055 0.188 0.002 0.010 0.004 0.020 0.007 0.030 0.014 0.054 0.027 0.107 0.038 0.162 0.005 0.022 0.009 0.044 0.013 0.066 0.007 0.034 0.014 0.068 0.020 0.103h12.024v-20.172c0-0.375 0.312-0.679 0.696-0.679h10.059c0.017 0 0.070 0 0.103-0.060s0.004-0.103-0.006-0.116l-2.177-3.186c-0.211-0.308-0.563-0.492-0.943-0.492h-18.168c-0.101 0-0.197 0.039-0.268 0.109l-1.151 1.123c-0.334 0.326-0.779 0.506-1.252 0.506h-11.981c-0.621 0-1.127 0.493-1.127 1.099v17.417z"></path>
<path d="M19.422 7.501h4.401c0.889 0 1.612 0.705 1.612 1.573v14.527c0 0.375-0.312 0.679-0.696 0.679h-6.234c-0.384 0-0.696-0.304-0.696-0.679v-14.527c-0.001-0.868 0.722-1.573 1.612-1.573zM19.201 22.922h4.842v-7.982h-4.842v7.982zM19.201 13.583h4.842v-4.508c0-0.119-0.099-0.216-0.221-0.216h-4.401c-0.122 0-0.221 0.097-0.221 0.216v4.508h0.001zM5.345 7.501h8.51c0.983 0 1.784 0.781 1.784 1.74v3.959c0 0.959-0.8 1.74-1.784 1.74h-8.511c-0.984 0-1.784-0.781-1.784-1.74v-3.959c0.001-0.959 0.801-1.74 1.784-1.74zM4.952 13.2c0 0.211 0.176 0.383 0.392 0.383h8.51c0.216 0 0.392-0.172 0.392-0.383v-3.959c0-0.211-0.176-0.383-0.392-0.383h-8.511c-0.216 0-0.392 0.172-0.392 0.383v3.959h0.001z"></path>
</symbol>
</defs>
</svg>
